<svg width="1368" height="88" viewBox="0 0 1368 88" fill="none" xmlns="http://www.w3.org/2000/svg">
<g filter="url(#filter0_d_568_73)">
<rect x="4" width="1360" height="80" rx="12" fill="#6CA6C7"/>
<mask id="mask0_568_73" style="mask-type:alpha" maskUnits="userSpaceOnUse" x="4" y="0" width="1360" height="80">
<rect x="4" width="1360" height="80" rx="12" fill="#00A3FF"/>
</mask>
<g mask="url(#mask0_568_73)">
<path d="M1223.5 59.5L1213 75.5" stroke="url(#paint0_linear_568_73)" stroke-opacity="0.3" stroke-width="2" stroke-linecap="round"/>
<path d="M1251 49L1240.5 65" stroke="url(#paint1_linear_568_73)" stroke-opacity="0.3" stroke-width="2" stroke-linecap="round"/>
<path d="M1270 60L1259.5 76" stroke="url(#paint2_linear_568_73)" stroke-opacity="0.3" stroke-width="2" stroke-linecap="round"/>
<path d="M1298 49L1287.5 65" stroke="url(#paint3_linear_568_73)" stroke-opacity="0.3" stroke-width="2" stroke-linecap="round"/>
<path d="M1322 61L1311.5 77" stroke="url(#paint4_linear_568_73)" stroke-opacity="0.3" stroke-width="2" stroke-linecap="round"/>
<path d="M1350 48L1339.5 64" stroke="url(#paint5_linear_568_73)" stroke-opacity="0.3" stroke-width="2" stroke-linecap="round"/>
<path fill-rule="evenodd" clip-rule="evenodd" d="M1242.22 -15.9894C1245.61 -39.7406 1266.04 -58 1290.73 -58C1306.81 -58 1321.09 -50.2481 1330.02 -38.2761C1333.88 -39.5136 1338 -40.1818 1342.27 -40.1818C1364.41 -40.1818 1382.36 -22.2325 1382.36 -0.0909119C1382.36 22.0507 1364.41 40 1342.27 40H1290.73H1243H1239.18V39.7418C1225.52 37.8796 1215 26.1688 1215 12C1215 -3.20379 1227.12 -15.5773 1242.22 -15.9894Z" fill="#B4B4B4"/>
</g>
</g>
<defs>
<filter id="filter0_d_568_73" x="0" y="0" width="1368" height="88" filterUnits="userSpaceOnUse" color-interpolation-filters="sRGB">
<feFlood flood-opacity="0" result="BackgroundImageFix"/>
<feColorMatrix in="SourceAlpha" type="matrix" values="0 0 0 0 0 0 0 0 0 0 0 0 0 0 0 0 0 0 127 0" result="hardAlpha"/>
<feOffset dy="4"/>
<feGaussianBlur stdDeviation="2"/>
<feComposite in2="hardAlpha" operator="out"/>
<feColorMatrix type="matrix" values="0 0 0 0 0 0 0 0 0 0 0 0 0 0 0 0 0 0 0.25 0"/>
<feBlend mode="normal" in2="BackgroundImageFix" result="effect1_dropShadow_568_73"/>
<feBlend mode="normal" in="SourceGraphic" in2="effect1_dropShadow_568_73" result="shape"/>
</filter>
<linearGradient id="paint0_linear_568_73" x1="1218.25" y1="59.5" x2="1218.25" y2="75.5" gradientUnits="userSpaceOnUse">
<stop stop-color="white" stop-opacity="0"/>
<stop offset="0.895833" stop-color="white"/>
</linearGradient>
<linearGradient id="paint1_linear_568_73" x1="1245.75" y1="49" x2="1245.75" y2="65" gradientUnits="userSpaceOnUse">
<stop stop-color="white" stop-opacity="0"/>
<stop offset="0.895833" stop-color="white"/>
</linearGradient>
<linearGradient id="paint2_linear_568_73" x1="1264.75" y1="60" x2="1264.75" y2="76" gradientUnits="userSpaceOnUse">
<stop stop-color="white" stop-opacity="0"/>
<stop offset="0.895833" stop-color="white"/>
</linearGradient>
<linearGradient id="paint3_linear_568_73" x1="1292.75" y1="49" x2="1292.75" y2="65" gradientUnits="userSpaceOnUse">
<stop stop-color="white" stop-opacity="0"/>
<stop offset="0.895833" stop-color="white"/>
</linearGradient>
<linearGradient id="paint4_linear_568_73" x1="1316.75" y1="61" x2="1316.75" y2="77" gradientUnits="userSpaceOnUse">
<stop stop-color="white" stop-opacity="0"/>
<stop offset="0.895833" stop-color="white"/>
</linearGradient>
<linearGradient id="paint5_linear_568_73" x1="1344.75" y1="48" x2="1344.75" y2="64" gradientUnits="userSpaceOnUse">
<stop stop-color="white" stop-opacity="0"/>
<stop offset="0.895833" stop-color="white"/>
</linearGradient>
</defs>
</svg>
